<?xml version="1.0" encoding="utf-8"?>
<svg width="121" height="78" viewBox="0 0 121 78" fill="none" xmlns="http://www.w3.org/2000/svg">
  <path d="M 17.005 52.882 C 23.443 51.216 29.764 49.383 36.125 47.997 C 45.699 45.925 54.618 40.817 63.683 36.254 C 68.811 33.678 74.171 31.677 79.54 30.683 C 83.35 29.969 87.372 31.131 91.25 31.914 C 93.704 32.418 93.742 32.992 93.232 36.995 C 84.957 33.608 76.721 34.21 68.532 37.765 C 76.807 35.778 85.053 34.574 93.146 39.515 C 92.039 47.171 89.403 53.162 85.419 57.865 C 79.79 64.5 73.343 68.531 66.117 69.105 C 56.812 69.846 49.942 63.408 44.958 52.364 C 44.227 50.741 43.486 50.139 42.196 50.222 C 37.096 50.53 32.237 52.154 27.542 55.066 C 25.434 56.381 23.25 57.571 21.018 58.285 C 18.247 59.223 17.025 57.431 17.005 52.882 Z" fill="#F54748" style=""/>
  <path d="M 53.122 36.565 C 52.147 33.833 51.387 30.039 53.553 27.048 C 54.334 25.963 54.993 25.682 55.706 24.768 C 57.1 22.961 57.94 19.638 54.845 12.97 C 55.909 13.642 57.315 14.727 58.28 16.394 C 59.378 18.292 59.23 19.759 59.57 21.345 C 59.968 23.22 61.158 25.772 64.728 28.573 C 64.353 27.549 63.957 26.123 63.867 24.387 C 63.787 22.678 64.026 21.233 64.298 20.199 C 64.706 21.254 65.363 22.599 66.452 24.004 C 67.177 24.937 67.925 25.691 68.603 26.284 C 67.664 25.06 66.417 23.132 65.602 20.569 C 64.977 18.613 64.298 15.339 65.171 11.434 C 65.917 8.091 67.505 5.63 68.603 4.206 C 68.525 5.429 68.559 7.77 69.898 10.29 C 71.949 14.175 75.689 15.891 76.764 16.375 C 79.463 17.58 80.019 16.925 85.355 18.281 C 89.528 19.336 91.613 19.867 93.517 21.323 C 94.605 22.148 97.13 24.416 97.813 29.314 C 95.363 28.956 92.055 28.634 88.144 28.743 C 83.769 28.865 80.482 29.467 78.262 29.889 C 74.861 30.531 72.129 31.332 66.666 32.93 C 63.492 33.865 61.227 34.596 57.214 35.592 C 55.503 36.032 54.087 36.354 53.122 36.565 Z" fill="#FDC55E" style=""/>
  <path d="M 73.979 29.381 C 74.027 29.605 76.144 28.374 79.088 27.786 C 82.59 27.086 85.621 27.618 87.844 28.318 C 87.863 25.994 87.411 24.385 87.113 23.545 C 86.333 21.319 85.131 20.087 83.832 18.772 C 82.821 17.736 81.907 17.064 81.282 16.644 C 82.129 17.61 83.177 18.996 84.197 20.885 C 85.256 22.845 85.939 24.72 86.382 26.19 C 84.909 25.854 82.735 25.588 80.185 26.19 C 76.73 27.03 73.921 29.13 73.979 29.381 Z" fill="white" style=""/>
</svg>